<?xml version="1.0" encoding="utf-8"?>
<!-- Generator: Adobe Illustrator 23.0.2, SVG Export Plug-In . SVG Version: 6.00 Build 0)  -->
<svg version="1.1" id="Слой_1" xmlns="http://www.w3.org/2000/svg" xmlns:xlink="http://www.w3.org/1999/xlink" x="0px" y="0px"
	 viewBox="0 0 282.3 109.5" style="enable-background:new 0 0 282.3 109.5;" xml:space="preserve">
<style type="text/css">
	.st0{fill:#D0AC3D;}
	.st1{fill:#313131;}
	.st2{fill:#FFFFFF;}
</style>
<circle class="st0" cx="53.5" cy="56" r="53.5"/>
<g>
	
		<image style="overflow:visible;opacity:0.9;" width="94" height="88" xlink:href="F17996845AED64ED.png"  transform="matrix(1 0 0 1 22.2725 12.2275)">
	</image>
	<g>
		<path class="st1" d="M48.8,52.5l-9,8.9v22.9h-5.4v-64h5.4v34.5l32.8-34.5h6.8L52.6,48.7l28.9,35.5h-6.6L48.8,52.5z M103.4,58.2
			h-21v-4.4h21V58.2z"/>
	</g>
</g>
<g>
	
		<image style="overflow:visible;opacity:0.9;" width="190" height="93" xlink:href="F17996845AED64EF.png"  transform="matrix(1 0 0 1 94.2725 8.2275)">
	</image>
	<g>
		<path class="st2" d="M121,24.5v12.2h9.8V41H121v31.7c0,2.6,0.5,4.6,1.4,5.9c1,1.3,2.6,1.9,4.8,1.9c0.9,0,2.3-0.1,4.3-0.4l0.2,4.3
			c-1.4,0.5-3.3,0.7-5.6,0.7c-3.6,0-6.2-1-7.9-3.1c-1.6-2.1-2.5-5.2-2.5-9.3V41H107v-4.3h8.7V24.5H121z M163.7,41.2
			c-1.1-0.2-2.3-0.3-3.6-0.3c-3.3,0-6.1,0.9-8.3,2.8c-2.3,1.8-3.9,4.5-4.8,8v32.7h-5.2V36.7h5.1l0.1,7.6c2.8-5.6,7.3-8.4,13.4-8.4
			c1.5,0,2.6,0.2,3.5,0.6L163.7,41.2z M178,84.2h-5.3V36.7h5.3V84.2z M171.8,22.9c0-1,0.3-1.8,1-2.5c0.6-0.7,1.5-1.1,2.6-1.1
			c1.1,0,2,0.4,2.6,1.1c0.7,0.7,1,1.5,1,2.5c0,1-0.3,1.8-1,2.5c-0.6,0.7-1.5,1-2.6,1c-1.1,0-2-0.3-2.6-1
			C172.1,24.8,171.8,23.9,171.8,22.9z M203.6,60.3l-6,5.8v18.1h-5.3V16.7h5.3v43.2l5-5.4l18.2-17.9h6.6l-20.2,20l21.9,27.5h-6.3
			L203.6,60.3z M254,85.1c-4,0-7.7-1-11-3c-3.3-2-5.8-4.8-7.6-8.3c-1.8-3.6-2.7-7.6-2.7-12v-1.9c0-4.6,0.9-8.7,2.6-12.3
			c1.8-3.7,4.3-6.5,7.4-8.6c3.2-2.1,6.6-3.2,10.3-3.2c5.8,0,10.3,2,13.7,5.9c3.4,3.9,5.1,9.3,5.1,16.1v2.9h-33.9v1
			c0,5.4,1.5,9.9,4.6,13.5c3.1,3.6,7,5.4,11.7,5.4c2.8,0,5.3-0.5,7.4-1.5c2.2-1,4.1-2.7,5.9-4.9l3.3,2.5
			C266.9,82.3,261.3,85.1,254,85.1z M253,40.3c-4,0-7.3,1.5-10,4.4c-2.7,2.9-4.3,6.8-4.9,11.7h28.5v-0.6c-0.1-4.6-1.4-8.3-3.9-11.2
			C260.2,41.7,257,40.3,253,40.3z"/>
	</g>
</g>
</svg>
